<?xml version="1.0" encoding="UTF-8"?><svg id="_圖層_1" xmlns="http://www.w3.org/2000/svg" viewBox="0 0 1417.32 1417.32"><defs><style>.cls-1{fill:#e84c59;stroke-width:0px;}</style></defs><polygon class="cls-1" points="773.65 8.55 773.65 8.58 773.65 8.58 773.65 8.55"/><polygon class="cls-1" points="575.5 54.87 575.52 54.9 575.52 54.9 575.5 54.87"/><polygon class="cls-1" points="401.52 160.41 401.54 160.44 401.55 160.44 401.52 160.41"/><polygon class="cls-1" points="1405.6 717.07 852.49 739.28 1331.27 845.92 1289.84 917.68 837 789.57 1229.52 1022.09 1190.24 1090.12 834.59 851.39 965.43 1013.47 1127.76 1198.42 1122.29 1207.87 1119.06 1213.5 1084.59 1273.25 785.21 890.58 859.12 1085.15 966.43 1335.56 879.59 1335.56 726.13 912.54 735.99 1120.69 755.21 1335.56 676.74 1335.56 663.07 915.11 547.56 1335.56 540.01 1335.56 649.31 826.86 319.43 1326.36 317.69 1323.38 616.66 809.79 208.4 1134.2 204.67 1127.66 590.98 783.44 109.29 962.43 105.31 955.63 574.73 750.38 .16 773.42 -2.24 769.35 569.51 713.92 45.24 565.68 48.47 560.21 575.89 677.71 146.91 389.68 150.72 383.05 593.21 645.14 518.14 549.19 235.33 236.54 251.48 208.45 254.47 203.4 278.33 161.97 596.94 556.81 578.21 505.19 389.2 81.76 477.7 81.76 650.72 536.84 648.98 481.82 607.13 81.76 686.52 81.76 708.81 549.85 809.4 81.76 892.02 81.76 759.27 564.93 1040.59 81.76 1048.55 81.76 1091.88 156.75 802.52 594.93 1160.66 275.82 1200.93 345.59 834.34 636.86 1261.34 450.17 1301.36 519.52 851.5 686.66 1368.9 636.53 1410.49 708.62 1405.6 717.07"/></svg>